<svg fill="#000000" xmlns:dc="http://purl.org/dc/elements/1.1/" xmlns:cc="http://creativecommons.org/ns#" xmlns:rdf="http://www.w3.org/1999/02/22-rdf-syntax-ns#" xmlns:svg="http://www.w3.org/2000/svg" xmlns="http://www.w3.org/2000/svg" xmlns:sodipodi="http://sodipodi.sourceforge.net/DTD/sodipodi-0.dtd" xmlns:inkscape="http://www.inkscape.org/namespaces/inkscape" viewBox="0 0 32 32" version="1.1" x="0px" y="0px"><g transform="translate(0,-1020.3622)"><text xml:space="preserve" style="letter-spacing:0px;word-spacing:0px;" x="12" y="1036.3622" font-style="normal" font-weight="normal" font-size="11.25px" line-height="125%" font-family="Sans" fill="#000000" fill-opacity="1" stroke="none"><tspan x="12" y="1036.3622"/></text><path style="color:#000000;font-style:normal;font-variant:normal;font-weight:normal;font-stretch:normal;font-size:medium;line-height:normal;font-family:sans-serif;text-indent:0;text-align:start;text-decoration:none;text-decoration-line:none;text-decoration-style:solid;text-decoration-color:#000000;letter-spacing:normal;word-spacing:normal;text-transform:none;direction:ltr;block-progression:tb;writing-mode:lr-tb;baseline-shift:baseline;text-anchor:start;white-space:normal;clip-rule:nonzero;display:inline;overflow:visible;visibility:visible;opacity:1;isolation:auto;mix-blend-mode:normal;color-interpolation:sRGB;color-interpolation-filters:linearRGB;solid-color:#000000;solid-opacity:1;fill:#000000;fill-opacity:1;fill-rule:nonzero;stroke:none;stroke-width:1;stroke-linecap:butt;stroke-linejoin:round;stroke-miterlimit:4;stroke-dasharray:none;stroke-dashoffset:0;stroke-opacity:1;color-rendering:auto;image-rendering:auto;shape-rendering:auto;text-rendering:auto;enable-background:accumulate" d="M 4.4414062,4.0029297 C 2.5418465,4.0352262 1,5.592974 1,7.5 1.0000276,7.7761309 1.2238691,7.9999724 1.5,8 L 7,8 7,24.5 c 0,1.9271 1.5729349,3.5 3.5,3.5 l 11,0 6,0 C 29.427065,28 31,26.4271 31,24.5 30.999972,24.223869 30.776131,24.000028 30.5,24 L 25,24 25,7.5 C 25,5.5729 23.427065,4 21.5,4 l -17,0.00293 z M 4.5,5 C 5.6906509,5 6.5371339,5.8901 6.7929688,7 L 2.2070312,7 C 2.4628661,5.8901 3.3093491,5 4.5,5 Z M 6.9394531,5 21.5,5 C 22.886643,5 24,6.1133 24,7.5 L 24,24 13.5,24 c -0.276131,2.8e-5 -0.499972,0.223869 -0.5,0.5 C 13,25.8867 11.886643,27 10.5,27 9.1133567,27 8,25.8867 8,24.5 L 8,7.5 C 8,6.5210474 7.5914912,5.636385 6.9394531,5 Z m 4.7773439,1 0,0.9257812 c -0.251466,0.030842 -0.47825,0.091786 -0.681641,0.1816407 -0.203391,0.089796 -0.377261,0.2053166 -0.521484,0.3457031 -0.140525,0.1403284 -0.250467,0.3051751 -0.328125,0.4960938 -0.07396,0.1908605 -0.111328,0.4026297 -0.111328,0.6328124 0,0.2498148 0.04385,0.4692957 0.128906,0.6601563 0.08875,0.1909187 0.21424,0.3598969 0.376953,0.5058594 0.166411,0.1459624 0.366634,0.2733261 0.59961,0.3828121 0.236673,0.106641 0.502986,0.199818 0.798828,0.28125 0.221882,0.07295 0.409136,0.14993 0.564453,0.228516 0.159014,0.07859 0.286663,0.163217 0.382812,0.255859 0.09985,0.09264 0.172424,0.19213 0.216797,0.298828 0.04437,0.106641 0.06641,0.223279 0.06641,0.34961 0,0.151596 -0.02656,0.290578 -0.08203,0.414062 -0.05547,0.120697 -0.136898,0.223539 -0.244141,0.310547 -0.103544,0.08434 -0.233355,0.149638 -0.388671,0.197266 -0.15162,0.04472 -0.325489,0.06836 -0.521485,0.06836 -0.140524,0 -0.28135,-0.0181 -0.421875,-0.05469 -0.140525,-0.03653 -0.268174,-0.100775 -0.382812,-0.19336 -0.114639,-0.09264 -0.207081,-0.217769 -0.277344,-0.375 -0.07026,-0.157172 -0.105469,-0.355145 -0.105469,-0.59375 l -0.9765622,0 c 0,0.317191 0.050544,0.589012 0.1503906,0.816407 0.099847,0.224548 0.2320266,0.411796 0.3984376,0.560546 0.170109,0.148809 0.365801,0.261258 0.583984,0.339844 0.218184,0.07888 0.442806,0.131275 0.675782,0.15625 l 0,0.808594 0.771484,0 0,-0.808594 c 0.277352,-0.02805 0.526166,-0.08375 0.748047,-0.167968 0.221881,-0.08422 0.411089,-0.197563 0.566406,-0.337891 0.155317,-0.140387 0.276274,-0.305233 0.361328,-0.496094 0.08506,-0.193707 0.126953,-0.410951 0.126953,-0.652344 0,-0.247026 -0.04169,-0.464271 -0.123047,-0.652343 -0.08136,-0.188073 -0.200359,-0.354931 -0.359375,-0.498047 -0.159014,-0.143175 -0.354915,-0.268302 -0.58789,-0.375 C 12.888119,9.9022905 12.619645,9.8038632 12.316406,9.7167969 12.079733,9.6410567 11.87951,9.5649724 11.716797,9.4863281 11.557781,9.4049539 11.427971,9.3183699 11.328125,9.2285156 11.228279,9.1387194 11.157658,9.0402921 11.113281,8.9335938 c -0.04068,-0.1094283 -0.0625,-0.230482 -0.0625,-0.3652344 0,-0.1459625 0.02182,-0.2796943 0.0625,-0.4003906 0.04438,-0.1206964 0.108305,-0.2224204 0.19336,-0.3066407 0.08875,-0.087124 0.198694,-0.155497 0.328125,-0.203125 0.129431,-0.047628 0.281478,-0.070312 0.458984,-0.070312 0.170108,0 0.321949,0.031115 0.455078,0.095703 0.133129,0.06453 0.245232,0.1544108 0.333984,0.2695312 0.08876,0.1150623 0.154846,0.2509726 0.199219,0.4082031 0.04808,0.1571725 0.07227,0.3314587 0.07227,0.5195313 l 0.970703,0 C 14.125,8.3110076 13.982013,7.8616041 13.697266,7.5332031 13.416215,7.2019561 13.017723,6.9998517 12.5,6.9296875 L 12.5,6 Z m 4.740234,3 c -0.666666,0.033854 -0.615885,1.033854 0.05078,1 l 4.984376,0 c 0.676161,0.0096 0.676161,-1.0095626 0,-1 l -4.984376,0 c -0.01692,-8.6e-4 -0.03387,-8.6e-4 -0.05078,0 z m 0,3 c -0.666666,0.03385 -0.615885,1.033854 0.05078,1 l 4.984376,0 c 0.676161,0.0096 0.676161,-1.009563 0,-1 l -4.984376,0 c -0.01692,-8.6e-4 -0.03387,-8.6e-4 -0.05078,0 z m -6,3 c -0.6666664,0.03385 -0.6158854,1.033854 0.05078,1 l 10.984376,0 c 0.676158,0.0096 0.676158,-1.00956 0,-1 l -10.984376,0 c -0.01692,-8.6e-4 -0.03386,-8.6e-4 -0.05078,0 z m 0,3 c -0.6666664,0.03385 -0.6158854,1.033854 0.05078,1 l 10.984376,0 c 0.676158,0.0096 0.676158,-1.00956 0,-1 l -10.984376,0 c -0.01692,-8.6e-4 -0.03386,-8.6e-4 -0.05078,0 z m 0,3 c -0.6666664,0.03385 -0.6158854,1.033854 0.05078,1 l 10.984376,0 c 0.676158,0.0096 0.676158,-1.00956 0,-1 l -10.984376,0 c -0.01692,-8.6e-4 -0.03386,-8.6e-4 -0.05078,0 z m 3.441407,4 15.894531,0 C 29.537322,26.1102 28.690835,27 27.5,27 l -6,0 -8.568359,0 c 0.536614,-0.5218 0.850515,-1.2272 0.966797,-2 z" transform="translate(0,1020.3622)"/></g></svg>