<svg fill="#000000" xmlns="http://www.w3.org/2000/svg" xmlns:xlink="http://www.w3.org/1999/xlink" version="1.1" x="0px" y="0px" viewBox="0 0 24 24" style="enable-background:new 0 0 24 24;" xml:space="preserve"><g><path d="M18.456,12.387L17.69,12.12c0.011-0.322-0.007-0.656-0.054-0.998l0.748-0.372c0.615-0.307,0.874-1.062,0.579-1.685   L18.56,8.214c-0.28-0.606-1.068-0.881-1.679-0.582l-0.73,0.365c-0.223-0.239-0.464-0.457-0.723-0.651l0.27-0.789   c0.115-0.322,0.097-0.667-0.051-0.973c-0.144-0.302-0.396-0.528-0.708-0.636l-0.885-0.306c-0.636-0.221-1.373,0.148-1.6,0.786   L12.181,6.22c-0.316-0.018-0.647,0.016-0.967,0.064l-0.352-0.744C10.57,4.94,9.801,4.66,9.183,4.963L8.338,5.386   c-0.615,0.308-0.877,1.066-0.582,1.69l0.356,0.746C7.87,8.052,7.648,8.304,7.45,8.575L6.688,8.311   c-0.622-0.218-1.378,0.142-1.6,0.787L4.778,9.999c-0.227,0.662,0.115,1.382,0.762,1.607l0.77,0.266   c-0.011,0.333,0.007,0.667,0.054,0.998L5.62,13.24c-0.615,0.308-0.878,1.065-0.586,1.69l0.407,0.854   c0.288,0.606,1.061,0.886,1.676,0.577l0.73-0.363c0.223,0.236,0.464,0.453,0.723,0.649l-0.269,0.791   c-0.115,0.322-0.097,0.667,0.05,0.973c0.144,0.302,0.396,0.528,0.709,0.636l0.892,0.307c0.126,0.045,0.262,0.068,0.399,0.068   c0.532,0,1.014-0.343,1.197-0.859l0.269-0.789c0.302,0.007,0.644-0.014,0.971-0.064l0.345,0.739   c0.291,0.611,1.096,0.885,1.675,0.582l0.852-0.42c0.615-0.308,0.878-1.065,0.586-1.688l-0.356-0.753   c0.237-0.232,0.46-0.482,0.658-0.75l0.762,0.266c0.647,0.216,1.377-0.142,1.6-0.789l0.309-0.9   C19.452,13.341,19.11,12.62,18.456,12.387z M18.103,14.619c-0.072,0.212-0.32,0.334-0.514,0.264l-1.068-0.372   c-0.187-0.067-0.385,0.006-0.496,0.167c-0.259,0.397-0.576,0.757-0.931,1.068c-0.144,0.124-0.187,0.329-0.108,0.502l0.489,1.035   c0.097,0.207,0.007,0.466-0.194,0.566l-0.852,0.421c-0.198,0.097-0.438,0.011-0.529-0.183l-0.485-1.034   c-0.083-0.182-0.277-0.28-0.471-0.235c-0.471,0.099-0.946,0.129-1.392,0.092c-0.014,0-0.025,0-0.036,0   c-0.18,0-0.342,0.113-0.403,0.287l-0.37,1.088c-0.061,0.169-0.223,0.288-0.396,0.288c-0.043,0-0.083-0.007-0.122-0.02l-0.888-0.307   c-0.097-0.034-0.176-0.106-0.223-0.201c-0.047-0.101-0.054-0.216-0.014-0.327l0.374-1.095c0.061-0.182-0.007-0.383-0.165-0.489   C8.92,15.872,8.575,15.56,8.277,15.2c-0.083-0.099-0.205-0.153-0.327-0.153c-0.064,0-0.129,0.014-0.19,0.045l-1.025,0.511   c-0.191,0.102-0.435,0.009-0.525-0.185l-0.406-0.85c-0.097-0.207-0.007-0.465,0.198-0.566l1.025-0.51   c0.169-0.087,0.262-0.277,0.226-0.466c-0.093-0.464-0.119-0.938-0.072-1.406c0.018-0.196-0.1-0.38-0.284-0.442l-1.075-0.372   c-0.205-0.07-0.313-0.313-0.237-0.529l0.309-0.9c0.072-0.21,0.313-0.336,0.514-0.263l1.071,0.371   c0.191,0.065,0.388-0.006,0.5-0.173C8.23,8.913,8.543,8.557,8.906,8.251C9.053,8.126,9.1,7.917,9.017,7.743L8.525,6.711   C8.428,6.506,8.514,6.247,8.719,6.144l0.841-0.42c0.212-0.108,0.446-0.004,0.533,0.181l0.492,1.039   c0.083,0.178,0.292,0.277,0.475,0.234c0.456-0.102,0.924-0.138,1.388-0.095c0.162-0.013,0.367-0.102,0.435-0.286l0.378-1.091   c0.072-0.205,0.302-0.342,0.514-0.262l0.884,0.306c0.097,0.034,0.176,0.106,0.223,0.201c0.047,0.101,0.054,0.216,0.014,0.325   l-0.377,1.095c-0.061,0.183,0.007,0.386,0.169,0.492c0.385,0.256,0.733,0.568,1.032,0.93c0.126,0.155,0.342,0.196,0.518,0.11   l1.021-0.511c0.198-0.093,0.442-0.014,0.532,0.183l0.403,0.856c0.097,0.203,0.011,0.46-0.191,0.559l-1.025,0.512   c-0.169,0.083-0.262,0.27-0.226,0.455c0.09,0.496,0.111,0.974,0.072,1.422c-0.018,0.194,0.1,0.376,0.284,0.439l1.065,0.37   c0.212,0.076,0.324,0.309,0.244,0.527L18.103,14.619z"/><path d="M12.843,9.55c-1.298-0.449-2.79,0.302-3.247,1.612c-0.227,0.662-0.187,1.37,0.115,1.996   c0.295,0.608,0.809,1.064,1.442,1.284c0.266,0.092,0.539,0.138,0.82,0.138c1.089,0,2.064-0.701,2.434-1.751   C14.867,11.479,14.166,10.008,12.843,9.55z M13.606,12.552c-0.313,0.881-1.323,1.388-2.172,1.087   c-0.42-0.146-0.762-0.449-0.956-0.854c-0.205-0.419-0.234-0.897-0.076-1.345c0.241-0.705,0.896-1.179,1.629-1.179   c0.183,0,0.364,0.031,0.536,0.09C13.447,10.657,13.911,11.646,13.606,12.552z"/></g></svg>