<svg fill="#000000" xmlns="http://www.w3.org/2000/svg" xmlns:xlink="http://www.w3.org/1999/xlink" version="1.1" x="0px" y="0px" viewBox="0 0 24 24" style="enable-background:new 0 0 24 24;" xml:space="preserve"><g><path d="M17.001,9.66l-3.503-1.207l2.302-4.297c0.082-0.152,0.088-0.334,0.018-0.492c-0.07-0.158-0.209-0.275-0.377-0.316   l-5.091-1.259c-0.282-0.071-0.57,0.087-0.664,0.361l-3.035,8.806c-0.052,0.151-0.037,0.316,0.04,0.456   c0.078,0.139,0.211,0.239,0.367,0.273l3.316,0.739l-3.587,8.424c-0.109,0.255-0.015,0.55,0.221,0.696   C7.1,21.9,7.202,21.928,7.303,21.928c0.159,0,0.317-0.068,0.427-0.197l9.516-11.178c0.12-0.141,0.163-0.332,0.114-0.511   C17.31,9.863,17.176,9.72,17.001,9.66z M9.257,18.209l2.412-5.665c0.065-0.153,0.059-0.327-0.017-0.475   c-0.076-0.148-0.214-0.255-0.376-0.291l-3.361-0.749l2.664-7.73l3.894,0.963l-2.272,4.241c-0.078,0.145-0.088,0.316-0.028,0.469   c0.06,0.153,0.184,0.272,0.339,0.325l3.348,1.153L9.257,18.209z"/></g></svg>