<svg fill="#000000" xmlns:dc="http://purl.org/dc/elements/1.1/" xmlns:cc="http://creativecommons.org/ns#" xmlns:rdf="http://www.w3.org/1999/02/22-rdf-syntax-ns#" xmlns:svg="http://www.w3.org/2000/svg" xmlns="http://www.w3.org/2000/svg" xmlns:sodipodi="http://sodipodi.sourceforge.net/DTD/sodipodi-0.dtd" xmlns:inkscape="http://www.inkscape.org/namespaces/inkscape" version="1.1" x="0px" y="0px" viewBox="0 0 100 100"><g transform="translate(0,-952.36218)"><path style="font-size:medium;font-style:normal;font-variant:normal;font-weight:normal;font-stretch:normal;text-indent:0;text-align:start;text-decoration:none;line-height:normal;letter-spacing:normal;word-spacing:normal;text-transform:none;direction:ltr;block-progression:tb;writing-mode:lr-tb;text-anchor:start;baseline-shift:baseline;opacity:1;color:#000000;fill:#000000;fill-opacity:1;stroke:none;stroke-width:3.99999881000000010;marker:none;visibility:visible;display:inline;overflow:visible;enable-background:accumulate;font-family:Sans;-inkscape-font-specification:Sans" d="M 31.8125 14 A 2.0001994 2.0001994 0 0 0 30 16 L 30 22 L 24 22 A 2.0001994 2.0001994 0 0 0 23.8125 22 A 2.0021961 2.0021961 0 1 0 24 26 L 30 26 L 30 39 L 24 39 A 2.0001994 2.0001994 0 0 0 23.8125 39 A 2.0021961 2.0021961 0 1 0 24 43 L 30 43 L 30 56 L 24 56 A 2.0001994 2.0001994 0 0 0 23.8125 56 A 2.0021961 2.0021961 0 1 0 24 60 L 30 60 L 30 73 L 24 73 A 2.0001994 2.0001994 0 0 0 23.8125 73 A 2.0021961 2.0021961 0 1 0 24 77 L 30 77 L 30 84 A 2.0001994 2.0001994 0 0 0 32 86 L 76 86 A 2.0001994 2.0001994 0 0 0 78 84 L 78 16 A 2.0001994 2.0001994 0 0 0 76 14 L 32 14 A 2.0001994 2.0001994 0 0 0 31.8125 14 z M 34 18 L 74 18 L 74 82 L 34 82 L 34 18 z M 41.8125 22 A 2.0001993 2.0001993 0 0 0 40 24 L 40 41 A 2.0001993 2.0001993 0 0 0 42 43 L 66 43 A 2.0001993 2.0001993 0 0 0 68 41 L 68 24 A 2.0001993 2.0001993 0 0 0 66 22 L 42 22 A 2.0001993 2.0001993 0 0 0 41.8125 22 z M 44 26 L 64 26 L 64 39 L 44 39 L 44 26 z M 41.8125 60 A 2.0021961 2.0021961 0 1 0 42 64 L 66 64 A 2.0001993 2.0001993 0 1 0 66 60 L 42 60 A 2.0001993 2.0001993 0 0 0 41.8125 60 z M 43.8125 69 A 2.0021961 2.0021961 0 1 0 44 73 L 64 73 A 2.0001992 2.0001992 0 1 0 64 69 L 44 69 A 2.0001992 2.0001992 0 0 0 43.8125 69 z " transform="translate(0,952.36218)"/></g></svg>