<?xml version="1.0" encoding="utf-8"?>
<!-- Generator: Adobe Illustrator 16.0.0, SVG Export Plug-In . SVG Version: 6.00 Build 0)  -->
<!DOCTYPE svg PUBLIC "-//W3C//DTD SVG 1.1//EN" "http://www.w3.org/Graphics/SVG/1.1/DTD/svg11.dtd">
<svg version="1.1" id="Capa_1" xmlns="http://www.w3.org/2000/svg" xmlns:xlink="http://www.w3.org/1999/xlink" x="0px" y="0px"
	 width="563.041px" height="559.368px" viewBox="26.928 116.928 563.041 559.368"
	 enable-background="new 26.928 116.928 563.041 559.368" xml:space="preserve">
<g>
	<path fill="#FFFFFF" d="M452.88,391.104h-84.456c-7.344,0-12.24-4.896-12.24-12.24c0-7.344,4.896-12.24,12.24-12.24h84.456
		c7.344,0,12.24,4.896,12.24,12.24C465.12,386.208,459,391.104,452.88,391.104z"/>
</g>
<g>
	<path fill="#FFFFFF" d="M452.88,342.144h-84.456c-7.344,0-12.24-4.896-12.24-12.24c0-7.344,4.896-12.24,12.24-12.24h84.456
		c7.344,0,12.24,4.896,12.24,12.24C465.12,337.248,459,342.144,452.88,342.144z"/>
</g>
<g>
	<path fill="#FFFFFF" d="M452.88,293.184h-84.456c-7.344,0-12.24-4.896-12.24-12.24c0-7.344,4.896-12.24,12.24-12.24h84.456
		c7.344,0,12.24,4.896,12.24,12.24C465.12,288.288,459,293.184,452.88,293.184z"/>
</g>
<g>
	<path fill="#FFFFFF" d="M452.88,244.224h-84.456c-7.344,0-12.24-4.896-12.24-12.24c0-7.344,4.896-12.24,12.24-12.24h84.456
		c7.344,0,12.24,4.896,12.24,12.24C465.12,239.328,459,244.224,452.88,244.224z"/>
</g>
<g>
	<path fill="#FFFFFF" d="M401.472,440.064H199.512c-7.344,0-12.24-4.896-12.24-12.24s4.896-12.24,12.24-12.24h201.958
		c7.346,0,12.24,4.896,12.24,12.24S407.592,440.064,401.472,440.064z"/>
</g>
<g>
	<path fill="#FFFFFF" d="M247.248,224.64c-46.512,0-84.456,37.944-84.456,83.232c0,46.512,37.944,84.456,84.456,84.456
		c46.512,0,83.232-37.944,83.232-84.456C331.704,262.584,293.76,224.64,247.248,224.64z M259.488,250.344
		c23.256,4.896,40.392,23.256,45.288,45.288h-45.288V250.344z M247.248,367.848c-33.048,0-59.976-26.928-59.976-59.976
		c0-28.152,20.808-52.632,47.736-57.528v57.528c0,7.344,6.12,12.24,12.24,12.24h57.528
		C299.88,348.264,275.4,367.848,247.248,367.848z"/>
</g>
<g>
	<path fill="#FFFFFF" d="M577.729,163.44H320.688v-34.272c0-7.344-6.118-12.24-12.238-12.24s-12.24,4.896-12.24,12.24v34.272H39.168
		c-6.12,0-12.24,4.896-12.24,12.24c0,6.12,6.12,12.24,12.24,12.24h63.648c-1.224,3.672-2.448,7.344-2.448,12.24v266.832
		c0,20.808,15.912,36.72,36.72,36.72h154.224l-55.08,155.448c-2.448,6.12,1.224,13.464,7.344,15.912
		c1.224,0,2.448,1.224,3.672,1.224c4.896,0,9.792-3.672,11.016-8.567l50.184-139.535l50.184,139.535
		c1.226,4.896,6.12,8.567,11.018,8.567c1.224,0,2.446,0,3.672-1.224c6.12-2.448,9.792-9.792,7.344-15.912l-55.08-155.448h154.224
		c19.584,0,36.722-15.912,36.722-36.72V200.16c0-4.896-1.226-8.568-2.448-12.24h63.646c6.12,0,12.24-6.12,12.24-12.24
		C589.968,168.336,585.072,163.44,577.729,163.44z M492.048,466.992c0,7.344-6.12,12.24-12.24,12.24H310.896l0,0H306l0,0H137.088
		c-6.12,0-12.24-4.896-12.24-12.24V200.16c0-7.344,6.12-12.24,12.24-12.24h342.72c6.12,0,12.24,4.896,12.24,12.24V466.992
		L492.048,466.992z"/>
</g>
<g>
	<path fill="#FFFFFF" d="M310.896,479.232H306h1.224h1.226C309.672,479.232,309.672,479.232,310.896,479.232z"/>
</g>
<g>
	<path fill="#FFFFFF" d="M310.896,479.232H306h1.224h1.226C309.672,479.232,309.672,479.232,310.896,479.232z"/>
</g>
</svg>
