<svg fill="#000000" xmlns:dc="http://purl.org/dc/elements/1.1/" xmlns:cc="http://creativecommons.org/ns#" xmlns:rdf="http://www.w3.org/1999/02/22-rdf-syntax-ns#" xmlns:svg="http://www.w3.org/2000/svg" xmlns="http://www.w3.org/2000/svg" xmlns:sodipodi="http://sodipodi.sourceforge.net/DTD/sodipodi-0.dtd" xmlns:inkscape="http://www.inkscape.org/namespaces/inkscape" version="1.1" x="0px" y="0px" viewBox="0 0 100 100"><g transform="translate(0,-952.36218)"><path style="font-size:medium;font-style:normal;font-variant:normal;font-weight:normal;font-stretch:normal;text-indent:0;text-align:start;text-decoration:none;line-height:normal;letter-spacing:normal;word-spacing:normal;text-transform:none;direction:ltr;block-progression:tb;writing-mode:lr-tb;text-anchor:start;baseline-shift:baseline;opacity:1;color:#000000;fill:#000000;fill-opacity:1;stroke:none;stroke-width:3.99999905000000000;marker:none;visibility:visible;display:inline;overflow:visible;enable-background:accumulate;font-family:Sans;-inkscape-font-specification:Sans" d="M 27.8125 18 A 2.0001995 2.0001995 0 0 0 26 20 L 26 42.875 L 18.9375 47.28125 A 2.0001998 2.0001998 0 0 0 18 49 L 18 80 A 2.0001998 2.0001998 0 0 0 20 82 L 80 82 A 2.0001998 2.0001998 0 0 0 82 80 L 82 49 A 2.0001998 2.0001998 0 0 0 81.0625 47.28125 L 74 42.875 L 74 20 A 2.0001995 2.0001995 0 0 0 72 18 L 28 18 A 2.0001995 2.0001995 0 0 0 27.8125 18 z M 30 22 L 70 22 L 70 52.6875 L 50 63.71875 L 30 52.6875 L 30 22 z M 41.8125 33 A 2.0021961 2.0021961 0 1 0 42 37 L 58 37 A 2.0001995 2.0001995 0 1 0 58 33 L 42 33 A 2.0001995 2.0001995 0 0 0 41.8125 33 z M 26 47.59375 L 26 50.46875 L 23.5625 49.125 L 26 47.59375 z M 74 47.59375 L 76.4375 49.125 L 74 50.46875 L 74 47.59375 z M 22 52.84375 L 35.1875 60.125 L 22 74.875 L 22 52.84375 z M 78 52.84375 L 78 74.875 L 64.8125 60.125 L 78 52.84375 z M 61.21875 62.09375 L 75.4375 78 L 24.59375 78 L 38.8125 62.125 L 49.03125 67.75 A 2.0001998 2.0001998 0 0 0 50.96875 67.75 L 61.21875 62.09375 z " transform="translate(0,952.36218)"/></g></svg>