<svg fill="#000000" xmlns="http://www.w3.org/2000/svg" xmlns:xlink="http://www.w3.org/1999/xlink" version="1.1" x="0px" y="0px" viewBox="0 0 100 100" style="enable-background:new 0 0 100 100;" xml:space="preserve"><g><path d="M42.1,17.4l-3.5,3.5v-3.5c0-5-4-9-9-9s-9,4-9,9V39l-6.7,6.7c-4.7,4.7-4.7,12.3,0,17l18,18c2.3,2.3,5.3,3.5,8.5,3.5   c3.2,0,6.2-1.2,8.5-3.5l28.3-28.3c0.4-0.4,0.6-0.9,0.6-1.4s-0.2-1-0.6-1.4L45,17.4C44.2,16.6,42.9,16.6,42.1,17.4z M34.6,77.8   l-18-18c-1.5-1.5-2.3-3.5-2.3-5.7c0-2.1,0.8-4.1,2.3-5.7l17.9-17.9V36c-1.2,0.7-2,2-2,3.4c0,2.2,1.8,4,4,4s4-1.8,4-4   c0-1.5-0.8-2.7-2-3.4v-9.4l4.9-4.9l29.3,29.3L45.9,77.8c-1.5,1.5-3.5,2.3-5.7,2.3C38.2,80.2,36.1,79.3,34.6,77.8z M24.6,17.4   c0-2.8,2.2-5,5-5s5,2.2,5,5v7.5l-10,10V17.4z"/><path d="M75.6,58.4c-1.1,1.5-10.9,14.4-10.9,20.7c0,6.9,5.6,12.5,12.5,12.5S89.7,86,89.7,79.1c0-6.3-9.8-19.3-10.9-20.7   C78,57.4,76.3,57.4,75.6,58.4z M77.2,87.6c-4.7,0-8.5-3.8-8.5-8.5c0-3.3,4.7-10.9,8.5-16.1c3.8,5.3,8.5,12.9,8.5,16.1   C85.7,83.8,81.9,87.6,77.2,87.6z"/></g></svg>