<svg fill="#000000" xmlns:dc="http://purl.org/dc/elements/1.1/" xmlns:cc="http://creativecommons.org/ns#" xmlns:rdf="http://www.w3.org/1999/02/22-rdf-syntax-ns#" xmlns:svg="http://www.w3.org/2000/svg" xmlns="http://www.w3.org/2000/svg" xmlns:sodipodi="http://sodipodi.sourceforge.net/DTD/sodipodi-0.dtd" xmlns:inkscape="http://www.inkscape.org/namespaces/inkscape" viewBox="0 0 47.999997 48" version="1.1" x="0px" y="0px"><g transform="translate(0,-1004.3622)" style="" display="inline"><path style="color:#000000;font-style:normal;font-variant:normal;font-weight:normal;font-stretch:normal;font-size:medium;line-height:normal;font-family:sans-serif;text-indent:0;text-align:start;text-decoration:none;text-decoration-line:none;text-decoration-style:solid;text-decoration-color:#000000;letter-spacing:normal;word-spacing:normal;text-transform:none;direction:ltr;block-progression:tb;writing-mode:lr-tb;baseline-shift:baseline;text-anchor:start;white-space:normal;clip-rule:nonzero;display:inline;overflow:visible;visibility:visible;opacity:1;isolation:auto;mix-blend-mode:normal;color-interpolation:sRGB;color-interpolation-filters:linearRGB;solid-color:#000000;solid-opacity:1;fill:#000000;fill-opacity:1;fill-rule:evenodd;stroke:none;stroke-width:2;stroke-linecap:round;stroke-linejoin:round;stroke-miterlimit:4;stroke-dasharray:none;stroke-dashoffset:0;stroke-opacity:1;marker:none;color-rendering:auto;image-rendering:auto;shape-rendering:auto;text-rendering:auto;enable-background:accumulate" d="M 8.984375 3.9863281 A 1.0001 1.0001 0 0 0 8 5.0019531 L 8 6 L 4 6 C 1.8012908 6 0 7.8013 0 10 L 0 14.832031 A 1.0001 1.0001 0 0 0 0 15.160156 L 0 40 C 0 42.1987 1.8012908 44 4 44 L 44 44 C 46.198709 44 48 42.1987 48 40 L 48 15.167969 A 1.0001 1.0001 0 0 0 48 14.841797 L 48 10 C 48 7.8013 46.198709 6 44 6 L 40 6 L 40 5.0019531 A 1.0001 1.0001 0 0 0 38.984375 3.9863281 A 1.0001 1.0001 0 0 0 38 5.0019531 L 38 6 L 30 6 L 30 5.0019531 A 1.0001 1.0001 0 0 0 28.984375 3.9863281 A 1.0001 1.0001 0 0 0 28 5.0019531 L 28 6 L 20 6 L 20 5.0019531 A 1.0001 1.0001 0 0 0 18.984375 3.9863281 A 1.0001 1.0001 0 0 0 18 5.0019531 L 18 6 L 10 6 L 10 5.0019531 A 1.0001 1.0001 0 0 0 8.984375 3.9863281 z M 4 8 L 8 8 L 8 9.0019531 A 1.0001 1.0001 0 1 0 10 9.0019531 L 10 8 L 18 8 L 18 9.0019531 A 1.0001 1.0001 0 1 0 20 9.0019531 L 20 8 L 28 8 L 28 9.0019531 A 1.0001 1.0001 0 1 0 30 9.0019531 L 30 8 L 38 8 L 38 9.0019531 A 1.0001 1.0001 0 1 0 40 9.0019531 L 40 8 L 44 8 C 45.125309 8 46 8.8747 46 10 L 46 14.001953 L 2 14.001953 L 2 10 C 2 8.8747 2.8746902 8 4 8 z M 2 16.001953 L 46 16.001953 L 46 40 C 46 41.1253 45.125309 42 44 42 L 4 42 C 2.8746902 42 2 41.1253 2 40 L 2 16.001953 z M 7 21.001953 A 1.0001 1.0001 0 1 0 7 23.001953 L 11 23.001953 A 1.0001 1.0001 0 1 0 11 21.001953 L 7 21.001953 z M 17 21.001953 A 1.0001 1.0001 0 1 0 17 23.001953 L 21 23.001953 A 1.0001 1.0001 0 1 0 21 21.001953 L 17 21.001953 z M 27 21.001953 A 1.0001 1.0001 0 1 0 27 23.001953 L 31 23.001953 A 1.0001 1.0001 0 1 0 31 21.001953 L 27 21.001953 z M 37 21.001953 A 1.0001 1.0001 0 1 0 37 23.001953 L 41 23.001953 A 1.0001 1.0001 0 1 0 41 21.001953 L 37 21.001953 z M 16.869141 25.869141 A 1.0001 1.0001 0 0 0 16.171875 27.587891 L 17.585938 29.001953 L 16.171875 30.416016 A 1.0001 1.0001 0 1 0 17.585938 31.830078 L 19 30.416016 L 20.414062 31.830078 A 1.0001 1.0001 0 1 0 21.828125 30.416016 L 20.414062 29.001953 L 21.828125 27.587891 A 1.0001 1.0001 0 0 0 21.101562 25.871094 A 1.0001 1.0001 0 0 0 20.414062 26.173828 L 19 27.587891 L 17.585938 26.173828 A 1.0001 1.0001 0 0 0 16.869141 25.869141 z M 7 28.001953 A 1.0001 1.0001 0 1 0 7 30.001953 L 11 30.001953 A 1.0001 1.0001 0 1 0 11 28.001953 L 7 28.001953 z M 27 28.001953 A 1.0001 1.0001 0 1 0 27 30.001953 L 31 30.001953 A 1.0001 1.0001 0 1 0 31 28.001953 L 27 28.001953 z M 37 28.001953 A 1.0001 1.0001 0 1 0 37 30.001953 L 41 30.001953 A 1.0001 1.0001 0 1 0 41 28.001953 L 37 28.001953 z M 7 35.001953 A 1.0001 1.0001 0 1 0 7 37.001953 L 11 37.001953 A 1.0001 1.0001 0 1 0 11 35.001953 L 7 35.001953 z M 17 35.001953 A 1.0001 1.0001 0 1 0 17 37.001953 L 21 37.001953 A 1.0001 1.0001 0 1 0 21 35.001953 L 17 35.001953 z M 27 35.001953 A 1.0001 1.0001 0 1 0 27 37.001953 L 31 37.001953 A 1.0001 1.0001 0 1 0 31 35.001953 L 27 35.001953 z " transform="translate(-1.9073486e-6,1004.3622)"/></g></svg>