<svg fill="#000000" xmlns="http://www.w3.org/2000/svg" xmlns:xlink="http://www.w3.org/1999/xlink" version="1.1" x="0px" y="0px" viewBox="0 0 100 100" style="enable-background:new 0 0 100 100;" xml:space="preserve"><g><path d="M76.8,36.7C76.8,36.7,76.8,36.7,76.8,36.7l-0.1-0.1c-0.1-0.1-0.1-0.1-0.2-0.2L55.2,15.1c0,0-0.1-0.1-0.1-0.1L55,15   c0,0,0,0,0,0c-1.1-1-2.5-1.6-4.1-1.6H26c-2.3,0-4.2,1.9-4.2,4.2v64.9c0,2.3,1.9,4.2,4.2,4.2h48.2c2.3,0,4.2-1.9,4.2-4.2V40.6   C78.3,39.1,77.8,37.7,76.8,36.7z M56.9,19.7L72,34.7H60.8c-2.1,0-3.9-1.7-3.9-3.9V19.7z M76.3,82.4c0,1.2-1,2.2-2.2,2.2H26   c-1.2,0-2.2-1-2.2-2.2V17.5c0-1.2,1-2.2,2.2-2.2h24.9c1.1,0,2.1,0.4,2.8,1.2l0.1,0.1c0.7,0.7,1.2,1.7,1.2,2.8v11.5   c0,3.2,2.6,5.9,5.9,5.9h11.7c1,0,2,0.4,2.7,1.1l0.1,0.1c0.7,0.7,1.1,1.6,1.1,2.7V82.4z"/><path d="M49.4,65.8c0.2,0.2,0.5,0.3,0.7,0.3s0.5-0.1,0.7-0.3l4.2-4.2c0.4-0.4,0.4-1,0-1.4s-1-0.4-1.4,0l-2.5,2.5V49.3   c0-0.6-0.4-1-1-1s-1,0.4-1,1v13.3l-2.5-2.5c-0.4-0.4-1-0.4-1.4,0s-0.4,1,0,1.4L49.4,65.8z"/><path d="M60.6,57.7c-0.6,0-1,0.4-1,1v11.6h-19V58.7c0-0.6-0.4-1-1-1s-1,0.4-1,1v12.6c0,0.6,0.4,1,1,1h21c0.6,0,1-0.4,1-1V58.7   C61.6,58.2,61.2,57.7,60.6,57.7z"/></g></svg>