<?xml version="1.0" encoding="utf-8"?>
<!-- Generator: Adobe Illustrator 16.0.0, SVG Export Plug-In . SVG Version: 6.00 Build 0)  -->
<!DOCTYPE svg PUBLIC "-//W3C//DTD SVG 1.1//EN" "http://www.w3.org/Graphics/SVG/1.1/DTD/svg11.dtd">
<svg version="1.1"
	 id="Capa_1" xmlns:rdf="http://www.w3.org/1999/02/22-rdf-syntax-ns#" xmlns:cc="http://creativecommons.org/ns#" xmlns:svg="http://www.w3.org/2000/svg" xmlns:dc="http://purl.org/dc/elements/1.1/" xmlns:sodipodi="http://sodipodi.sourceforge.net/DTD/sodipodi-0.dtd" xmlns:inkscape="http://www.inkscape.org/namespaces/inkscape"
	 xmlns="http://www.w3.org/2000/svg" xmlns:xlink="http://www.w3.org/1999/xlink" x="0px" y="0px" width="501.842px"
	 height="403.923px" viewBox="55.079 147.657 501.842 403.923" enable-background="new 55.079 147.657 501.842 403.923"
	 xml:space="preserve">
<g transform="translate(0,-952.36218)">
	<path d="M305.966,1100.022c-3.759,0.067-7.577,1.407-11.284,3.825l-232.56,183.6c-5.974,5.932-10.174,18.705-4.016,26.584
		c6.157,7.879,19.107,8.937,26.583,2.295l221.276-174.611l221.276,174.611c7.477,6.642,20.699,5.791,26.584-2.295
		c5.163-7.095,3.894-20.67-4.016-26.584l-232.561-183.6C313.426,1101.159,309.726,1099.954,305.966,1100.022z M159.086,1279.223
		l-36.72,29.07v177.289c0.001,10.14,8.221,18.358,18.36,18.36h116.28c10.14-0.002,18.359-8.221,18.36-18.36v-104.04h61.2v104.04
		c0.001,10.14,8.221,18.358,18.359,18.36h116.28c10.14-0.002,18.359-8.221,18.36-18.36v-177.289l-36.72-29.07v187.999h-79.561
		v-104.04c-0.001-10.14-8.221-18.359-18.36-18.36h-97.919c-10.14,0.001-18.359,8.22-18.36,18.36v104.04h-79.56V1279.223z"/>
</g>
</svg>
