<svg fill="#000000" xmlns="http://www.w3.org/2000/svg" xmlns:xlink="http://www.w3.org/1999/xlink" version="1.1" x="0px" y="0px" viewBox="0 0 100 100" style="enable-background:new 0 0 100 100;" xml:space="preserve"><path d="M88.9,10.4c-0.7-0.3-1.5-0.3-2.1,0.1l-11.7,8.3H37.6c-1.1,0-2,0.9-2,2V48H12c-1.1,0-2,0.9-2,2s0.9,2,2,2h23.6v27.2  c0,1.1,0.9,2,2,2h37.5l11.7,8.3c0.3,0.2,0.7,0.4,1.2,0.4c0.3,0,0.6-0.1,0.9-0.2c0.7-0.3,1.1-1,1.1-1.8V12.2  C90,11.4,89.6,10.8,88.9,10.4z M39.6,52h18.8L46.6,63.8c-0.8,0.8-0.8,2,0,2.8c0.4,0.4,0.9,0.6,1.4,0.6s1-0.2,1.4-0.6l15.2-15.2  c0.1-0.1,0.2-0.2,0.2-0.3c0,0,0-0.1,0-0.1c0.1-0.1,0.1-0.2,0.1-0.3c0,0,0-0.1,0-0.1c0-0.1,0.1-0.2,0.1-0.3c0-0.1,0-0.3,0-0.4  s0-0.3,0-0.4c0-0.1,0-0.2-0.1-0.3c0,0,0-0.1,0-0.1c0-0.1-0.1-0.2-0.1-0.3c0,0,0-0.1,0-0.1c-0.1-0.1-0.2-0.2-0.2-0.3L49.5,33.4  c-0.8-0.8-2-0.8-2.8,0c-0.8,0.8-0.8,2,0,2.8L58.4,48H39.6V22.8h34.2v54.3H39.6V52z M86,83.9l-8.2-5.8V21.9l8.2-5.8V83.9z"/></svg>