<svg fill="#000000" xmlns:dc="http://purl.org/dc/elements/1.1/" xmlns:cc="http://creativecommons.org/ns#" xmlns:rdf="http://www.w3.org/1999/02/22-rdf-syntax-ns#" xmlns:svg="http://www.w3.org/2000/svg" xmlns="http://www.w3.org/2000/svg" xmlns:sodipodi="http://sodipodi.sourceforge.net/DTD/sodipodi-0.dtd" xmlns:inkscape="http://www.inkscape.org/namespaces/inkscape" version="1.1" x="0px" y="0px" viewBox="0 0 100 100"><g transform="translate(0,-952.36218)"><path style="font-size:medium;font-style:normal;font-variant:normal;font-weight:normal;font-stretch:normal;text-indent:0;text-align:start;text-decoration:none;line-height:normal;letter-spacing:normal;word-spacing:normal;text-transform:none;direction:ltr;block-progression:tb;writing-mode:lr-tb;text-anchor:start;baseline-shift:baseline;opacity:1;color:#000000;fill:#000000;fill-opacity:1;stroke:none;stroke-width:4;marker:none;visibility:visible;display:inline;overflow:visible;enable-background:accumulate;font-family:Sans;-inkscape-font-specification:Sans" d="M 79.6875 18 A 2.0002 2.0002 0 0 0 79.25 18.125 L 19.25 42.125 A 2.0002 2.0002 0 0 0 19.09375 45.78125 L 42.53125 57.5 L 54.21875 80.875 A 2.0002 2.0002 0 0 0 57.84375 80.71875 L 81.84375 20.71875 A 2.0002 2.0002 0 0 0 79.6875 18 z M 71.6875 25.46875 L 43.625 53.53125 L 24.90625 44.1875 L 71.6875 25.46875 z M 74.5625 28.25 L 55.8125 75.125 L 46.4375 56.375 L 74.5625 28.25 z " transform="translate(0,952.36218)"/></g></svg>