<svg fill="#000000" xmlns="http://www.w3.org/2000/svg" data-name="Layer 1" viewBox="0 0 512 512" x="0px" y="0px"><title>s round right</title><path d="M310.19,60.64A142.67,142.67,0,1,1,167.52,203.31,142.67,142.67,0,0,1,310.19,60.64m0-59.14a201.85,201.85,0,0,0-78.57,387.73A201.85,201.85,0,0,0,388.76,17.39,200.6,200.6,0,0,0,310.19,1.5h0Z"/><path d="M7.44,461.24L104.71,364a25.59,25.59,0,0,1,36.09,0l5.73,5.73a25.59,25.59,0,0,1,0,36.09L49.26,503.05a25.59,25.59,0,0,1-36.09,0l-5.73-5.73A25.59,25.59,0,0,1,7.44,461.24Z"/></svg>